<svg width="18" height="18" viewBox="0 0 18 18" fill="none" xmlns="http://www.w3.org/2000/svg">
<path fill-rule="evenodd" clip-rule="evenodd" d="M12.8111 7.30976C12.8111 10.3481 10.3481 12.8111 7.30976 12.8111C4.27144 12.8111 1.8084 10.3481 1.8084 7.30976C1.8084 4.27144 4.27144 1.8084 7.30976 1.8084C10.3481 1.8084 12.8111 4.27144 12.8111 7.30976ZM11.7997 13.0785C10.5607 14.0442 9.00239 14.6195 7.30976 14.6195C3.27269 14.6195 0 11.3468 0 7.30976C0 3.27269 3.27269 0 7.30976 0C11.3468 0 14.6195 3.27269 14.6195 7.30976C14.6195 9.00242 14.0442 10.5607 13.0784 11.7997L18 16.7213L16.7213 18.0001L11.7997 13.0785Z" fill="#212529"/>
</svg>
